<svg width="486" height="486" viewBox="0 0 486 486" fill="none" xmlns="http://www.w3.org/2000/svg">
<g clip-path="url(#clip0_3_2)">
<path d="M235.823 142.502C245.782 132.094 236.78 142.352 262.159 113.444C255.856 104.186 248.01 103.987 240.757 102.9C207.386 143.04 195.997 151.347 178.407 166.757C170.598 172.933 162.003 178.557 153.751 184.567C138.636 196.424 75.51 226.938 5.78 261.751C1.915 263.69 0.265997 268.373 2.104 272.309C3.989 276.319 8.75 278.039 12.756 276.16C129.88 221.183 153.043 211.942 191.307 183.113C230.622 150.152 212.227 165.946 235.823 142.502Z" fill="url(#paint0_linear_3_2)"/>
<path d="M279.286 150.58C273.677 144.375 269.684 136.957 267.563 128.77C240.35 160.831 232.836 168.581 203.643 192.458C196.352 198.815 187.786 203.692 179.836 209.426C140.914 235.809 158.486 223.587 130.844 244.735C99.428 271.282 81.012 293.351 67.393 307.902C61.438 314.422 58.03 318.148 58.03 318.148C54.995 321.479 55.137 326.664 58.423 329.796C61.753 332.988 67.034 332.868 70.222 329.538C70.222 329.538 73.708 325.892 79.808 319.515C95.574 303.422 122.638 272.174 165.585 242.887C211.684 213.181 234.606 200.58 279.286 150.58Z" fill="url(#paint1_linear_3_2)"/>
<path d="M291.354 274.465C305.805 259.488 319.932 239.458 330.303 225.343C324.114 220.608 318.049 214.43 314.532 207.493C309.851 218.809 285.075 253.02 277.7 260.74C231.811 308.771 198.421 327.123 187.114 348.315C180.051 361.554 178.764 370.666 168.223 419.23C167.516 422.469 169.498 425.71 172.733 426.535C176.036 427.392 179.413 425.399 180.262 422.09C197.773 354.061 202.735 348.67 215.571 338.355C285.884 281.846 281.349 284.835 291.354 274.465Z" fill="url(#paint2_linear_3_2)"/>
<path d="M239.535 243.431C245.107 228.456 308.542 185.765 308.968 185.45C308.519 179.465 304.837 168.132 298.269 164.568C248.929 203.65 226.444 220.784 221.085 235.395C206.598 274.895 216.895 288.542 115.792 335.322C112.315 337.17 110.903 341.459 112.649 345.016C114.422 348.655 118.807 350.162 122.452 348.379C225.852 305.203 227.737 275.136 239.535 243.431Z" fill="url(#paint3_linear_3_2)"/>
<path d="M448.815 35.348C426.174 12.713 395.485 0 363.477 0C331.471 0.007 300.782 12.721 278.153 35.348L238.085 75.417C234.21 79.291 236.397 85.975 241.841 86.792L249.904 88.002C266.638 90.508 279.695 103.784 281.927 120.561C282.226 121.561 283.835 140.404 303.281 148.915C316.716 154.797 325.263 168.233 324.871 182.9C324.414 200.431 336.607 215.742 353.768 219.207L362.629 220.998C388.349 226.187 390.482 250.874 399.697 251.716C401.793 251.896 403.697 251.134 405.056 249.783L448.816 206.008C495.938 158.886 495.938 82.478 448.815 35.348ZM450.575 113.402C450.214 113.451 449.852 113.473 449.491 113.473C445.532 113.473 442.077 110.535 441.524 106.49C441.336 105.106 440.913 103.803 440.647 102.437C437.864 87.784 431.059 74.444 420.391 63.78C392.405 35.787 347.592 35.083 318.411 61.118C317.343 62.059 316.167 62.767 315.143 63.78C312 66.923 306.911 66.923 303.768 63.78C300.625 60.637 300.625 55.547 303.768 52.404C339.059 17.127 396.475 17.113 431.766 52.404C445.942 66.569 454.832 84.538 457.491 104.369C458.071 108.769 454.973 112.814 450.575 113.402Z" fill="url(#paint4_linear_3_2)"/>
<path d="M354.941 233.481C354.644 233.668 300.887 276.228 274.688 328.076C253.184 370.632 235.209 448.303 229.458 474.776C228.944 477.138 229.431 479.607 230.798 481.599C232.167 483.592 234.298 484.937 236.687 485.305L237.349 485.407C241.896 486.107 246.195 483.177 247.216 478.691C252.771 454.303 271.038 379.421 295.921 331.939C325.982 274.576 375.624 247.548 375.624 247.548C375.624 247.548 365.192 235.437 354.941 233.481Z" fill="url(#paint5_linear_3_2)"/>
</g>
<defs>
<linearGradient id="paint0_linear_3_2" x1="131.756" y1="102.9" x2="131.756" y2="276.921" gradientUnits="userSpaceOnUse">
<stop stop-color="#8360C3"/>
<stop offset="1" stop-color="#2EBF91"/>
</linearGradient>
<linearGradient id="paint1_linear_3_2" x1="167.569" y1="128.77" x2="167.569" y2="332.115" gradientUnits="userSpaceOnUse">
<stop stop-color="#8360C3"/>
<stop offset="1" stop-color="#2EBF91"/>
</linearGradient>
<linearGradient id="paint2_linear_3_2" x1="249.192" y1="207.493" x2="249.192" y2="426.734" gradientUnits="userSpaceOnUse">
<stop stop-color="#8360C3"/>
<stop offset="1" stop-color="#2EBF91"/>
</linearGradient>
<linearGradient id="paint3_linear_3_2" x1="210.434" y1="164.568" x2="210.434" y2="349.129" gradientUnits="userSpaceOnUse">
<stop stop-color="#8360C3"/>
<stop offset="1" stop-color="#2EBF91"/>
</linearGradient>
<linearGradient id="paint4_linear_3_2" x1="360.141" y1="0" x2="360.141" y2="251.742" gradientUnits="userSpaceOnUse">
<stop stop-color="#8360C3"/>
<stop offset="1" stop-color="#2EBF91"/>
</linearGradient>
<linearGradient id="paint5_linear_3_2" x1="302.441" y1="233.481" x2="302.441" y2="485.51" gradientUnits="userSpaceOnUse">
<stop stop-color="#8360C3"/>
<stop offset="1" stop-color="#2EBF91"/>
</linearGradient>
<clipPath id="clip0_3_2">
<rect width="485.51" height="485.51" fill="white"/>
</clipPath>
</defs>
</svg>
