<svg width="471" height="471" viewBox="0 0 471 471" fill="none" xmlns="http://www.w3.org/2000/svg">
<path d="M85.2829 62.802C79.2739 62.802 73.6229 65.142 69.3729 69.392C60.6019 78.164 60.6019 92.439 69.3739 101.212C73.6239 105.461 79.2739 107.801 85.2839 107.802C91.2929 107.801 96.9429 105.461 101.194 101.211C109.965 92.439 109.965 78.164 101.193 69.391C96.9429 65.142 91.2929 62.801 85.2829 62.802ZM90.5869 90.604C89.1699 92.021 87.2859 92.801 85.2829 92.801C83.2789 92.801 81.3949 92.021 79.9789 90.605C77.0549 87.68 77.0549 82.921 79.9779 79.998C81.3949 78.581 83.2789 77.802 85.2829 77.802C87.2859 77.802 89.1699 78.581 90.5859 79.997C93.5099 82.922 93.5099 87.681 90.5869 90.604Z" fill="white"/>
<path d="M400.63 400.647C409.401 391.875 409.401 377.6 400.629 368.827C396.379 364.578 390.729 362.238 384.72 362.238C378.71 362.238 373.06 364.578 368.809 368.828C360.038 377.6 360.038 391.875 368.81 400.648C373.06 404.897 378.71 407.238 384.72 407.238C390.729 407.238 396.379 404.897 400.63 400.647ZM379.416 379.435C380.833 378.018 382.717 377.239 384.721 377.239C386.724 377.239 388.608 378.018 390.024 379.434C392.948 382.359 392.948 387.118 390.025 390.041C388.608 391.458 386.724 392.238 384.721 392.238C382.717 392.238 380.833 391.458 379.417 390.042C376.493 387.117 376.493 382.358 379.416 379.435Z" fill="white"/>
<path d="M127.168 229.717C128.633 231.181 130.553 231.913 132.472 231.913C134.391 231.913 136.311 231.181 137.776 229.717C140.705 226.787 140.705 222.039 137.776 219.11L18.108 99.443L99.425 18.126L152.457 71.159L129.476 94.139C126.547 97.069 126.547 101.817 129.476 104.746C130.941 106.21 132.861 106.942 134.78 106.942C136.699 106.942 138.619 106.21 140.084 104.746L163.065 81.766L183.122 101.824L160.142 124.804C157.213 127.734 157.213 132.482 160.142 135.411C161.607 136.875 163.527 137.607 165.446 137.607C167.365 137.607 169.285 136.875 170.75 135.411L193.73 112.431L213.788 132.489L190.808 155.469C187.879 158.399 187.879 163.147 190.808 166.076C192.273 167.54 194.193 168.272 196.112 168.272C198.031 168.272 199.951 167.54 201.416 166.076L229.7 137.792C232.629 134.862 232.629 130.114 229.7 127.185L104.729 2.21602C101.799 -0.71198 97.051 -0.71198 94.122 2.21602L2.19797 94.14C-0.731029 97.07 -0.731029 101.818 2.19797 104.747L127.168 229.717Z" fill="white"/>
<path d="M342.836 240.322C339.906 237.394 335.158 237.394 332.229 240.322L303.945 268.606C301.016 271.536 301.016 276.284 303.945 279.213C305.41 280.677 307.33 281.409 309.249 281.409C311.168 281.409 313.088 280.677 314.553 279.213L337.533 256.233L357.591 276.291L334.611 299.271C331.682 302.201 331.682 306.949 334.611 309.878C336.076 311.342 337.996 312.074 339.915 312.074C341.834 312.074 343.754 311.342 345.219 309.878L368.199 286.898L388.257 306.956L365.276 329.936C362.347 332.866 362.347 337.614 365.276 340.543C366.741 342.007 368.661 342.739 370.58 342.739C372.499 342.739 374.419 342.007 375.884 340.543L398.865 317.563L451.898 370.595L370.581 451.912L250.912 332.246C247.982 329.318 243.234 329.318 240.305 332.246C237.376 335.176 237.376 339.924 240.305 342.853L365.275 467.823C366.74 469.287 368.66 470.019 370.579 470.019C372.498 470.019 374.418 469.287 375.883 467.823L467.807 375.899C470.736 372.969 470.736 368.221 467.807 365.292L342.836 240.322Z" fill="white"/>
<path d="M397.34 153.999C397.356 153.983 459.055 92.283 459.055 92.283C473.675 77.662 473.675 53.871 459.055 39.25L430.771 10.966C416.15 -3.65301 392.36 -3.65701 377.737 10.966L363.593 25.11C360.664 28.04 360.664 32.788 363.593 35.717C366.523 38.645 371.271 38.645 374.2 35.717L388.343 21.573C397.116 12.801 411.39 12.801 420.163 21.573L448.447 49.857C457.219 58.629 457.219 72.904 448.447 81.676L418.395 111.729L352.988 46.322C350.058 43.394 345.31 43.394 342.381 46.322L316.039 72.664C316.021 72.682 51.695 337.008 51.695 337.008C51.68 337.023 51.668 337.039 51.653 337.055C51.59 337.119 51.532 337.188 51.472 337.255C50.88 337.902 50.399 338.643 50.064 339.456L21.192 409.572C21.182 409.596 21.172 409.62 21.163 409.643L0.564971 459.665C-0.587029 462.465 0.0559709 465.683 2.19697 467.824C3.63297 469.259 5.55097 470.02 7.50297 470.02C8.46397 470.02 9.43297 469.835 10.357 469.456L60.384 448.856C60.403 448.848 60.422 448.84 60.442 448.833L130.566 419.958C131.383 419.621 132.127 419.137 132.777 418.541C132.84 418.484 132.904 418.43 132.965 418.371C132.981 418.355 132.999 418.342 133.015 418.326L397.34 153.999ZM130.295 399.829C128.277 396.386 125.806 393.178 122.931 390.302C117.051 384.422 109.919 380.327 102.361 378.268L298.353 182.276C301.282 179.346 301.282 174.598 298.353 171.669C295.423 168.741 290.675 168.741 287.746 171.669L91.754 367.66C89.694 360.101 85.599 352.97 79.719 347.09C76.843 344.215 73.635 341.744 70.191 339.726L321.334 88.584L346.082 113.332L316.03 143.384C313.101 146.314 313.101 151.062 316.03 153.991C317.495 155.455 319.415 156.187 321.334 156.187C323.253 156.187 325.173 155.455 326.638 153.991L356.69 123.939L381.439 148.687L130.295 399.829ZM59.356 433.057L36.964 410.666L61.17 351.881C64.058 353.377 66.746 355.33 69.112 357.697C76.2 364.784 79.484 374.408 77.896 383.439C77.472 385.848 78.25 388.312 79.979 390.042C81.708 391.771 84.173 392.549 86.582 392.125C95.614 390.537 105.237 393.822 112.324 400.909C114.691 403.275 116.644 405.963 118.14 408.851L59.356 433.057ZM347.685 62.232L407.789 122.336L392.044 138.08L331.94 77.976L347.685 62.232ZM30.776 425.692L44.328 439.245L21.289 448.731L30.776 425.692Z" fill="white"/>
</svg>
