<svg width="490" height="490" viewBox="0 0 490 490" fill="none" xmlns="http://www.w3.org/2000/svg">
<path d="M304.3 345.4H185.7C174.3 345.4 164.9 354.8 164.9 366.2C164.9 377.6 174.3 387 185.7 387H304.3C315.7 387 325.1 377.6 325.1 366.2C325.1 354.8 315.7 345.4 304.3 345.4Z" fill="white"/>
<path d="M224.2 245.5C224.2 211.2 196.1 184.1 161.8 184.1C127.5 184.1 99.4 211.1 99.4 245.5C99.4 279.8 127.5 306.9 161.8 306.9C196.1 306.9 224.2 279.9 224.2 245.5ZM182.6 245.5C182.6 256.9 173.2 266.3 161.8 266.3C150.4 266.3 141 257 141 245.5C141 234.1 150.4 224.7 161.8 224.7C174.3 224.7 183.6 234.1 182.6 245.5Z" fill="white"/>
<path d="M328.2 184.1C293.9 184.1 265.8 211.1 265.8 245.5C265.8 279.8 293.9 306.9 328.2 306.9C361.5 306.9 390.6 279.9 390.6 245.5C390.6 211.2 362.6 184.1 328.2 184.1ZM328.2 266.3C316.8 266.3 307.4 256.9 307.4 245.5C307.4 234.1 316.8 224.7 328.2 224.7C339.6 224.7 349 234.1 349 245.5C349 257 339.7 266.3 328.2 266.3Z" fill="white"/>
<path d="M455.1 164.6V39.9C462.4 36.7 467.6 29.3 467.6 20.9C467.6 9.5 458.2 0.1 446.8 0.1H417.7C406.3 0.1 396.9 9.5 396.9 20.9C396.9 30.9 404.1 39.3 413.5 41.3V118.8C369.7 81.9 310.4 59.3 245 59.3C179.1 59.3 119.3 82.3 75.4 119.6V39.9C83.1 36.7 88.9 29.3 88.9 20.8C88.9 9.4 79.5 0 68.1 0H39C27.6 0 18.2 9.4 18.2 20.8C18.2 30.4 24.9 38.6 33.8 40.9V166.2C12.6 198.1 0.5 235.2 0.5 274.7C0.5 393.2 109.8 490 245 490C380.2 490 489.5 393.2 489.5 274.6C489.5 234.5 477 196.9 455.1 164.6ZM245 449.4C132.6 449.4 41.1 371.4 41.1 274.6C41.1 177.8 132.6 99.8 245 99.8C357.4 99.8 448.9 177.8 448.9 274.6C448.9 371.4 357.4 449.4 245 449.4Z" fill="white"/>
</svg>
